<svg width="180" height="50" viewBox="0 0 180 50" fill="none" xmlns="http://www.w3.org/2000/svg">
<rect width="180" height="50" rx="25" fill="black"/>
<path d="M46.9596 24.9358C46.9596 21.6471 49.649 20.1202 49.7659 20.0028C48.2458 17.7712 45.9072 17.5363 45.0887 17.4188C43.1009 17.1839 41.23 18.5933 40.1776 18.5933C39.1252 18.5933 37.6051 17.4188 35.9681 17.4188C33.8633 17.4188 31.8755 18.7108 30.7062 20.59C28.4845 24.466 30.1215 30.3386 32.3432 33.5099C33.3956 35.0368 34.6818 36.7985 36.3189 36.7985C37.9559 36.6811 38.5405 35.7415 40.5284 35.7415C42.5162 35.7415 42.9839 36.7985 44.7379 36.7985C46.4919 36.7985 47.5442 35.2717 48.5966 33.6273C49.8829 31.8655 50.3506 30.1037 50.3506 29.9863C50.3506 30.1037 46.9596 28.8117 46.9596 24.9358Z" fill="white"/>
<path d="M43.6853 15.4221C44.5039 14.365 45.2054 12.8381 44.9716 11.3112C43.6853 11.3112 42.1652 12.1334 41.2298 13.3079C40.4113 14.2475 39.7097 15.7744 39.9435 17.3013C41.3467 17.3013 42.8668 16.4791 43.6853 15.4221Z" fill="white"/>
<path d="M67.4224 32.9227H61.9266L60.6404 36.9161H58.3018L63.5637 22.3519H65.9023L71.1642 36.9161H68.8255L67.4224 32.9227ZM62.5113 31.1609H66.9546L64.733 24.701H64.616L62.5113 31.1609Z" fill="white"/>
<path d="M82.507 31.6306C82.507 34.9193 80.753 37.0334 78.0636 37.0334C76.5435 37.0334 75.3742 36.3287 74.7896 35.1542V40.4396H72.5679V26.3452H74.6726V28.107C75.2573 26.9325 76.5435 26.2278 78.0636 26.2278C80.6361 26.1103 82.507 28.3419 82.507 31.6306ZM80.1684 31.6306C80.1684 29.5164 79.116 28.107 77.362 28.107C75.725 28.107 74.5557 29.5164 74.5557 31.6306C74.5557 33.7447 75.725 35.1542 77.362 35.1542C79.116 35.1542 80.1684 33.7447 80.1684 31.6306Z" fill="white"/>
<path d="M94.0822 31.6306C94.0822 34.9193 92.3282 37.0334 89.6388 37.0334C88.1187 37.0334 86.9494 36.3287 86.3648 35.1542V40.4396H84.1431V26.3452H86.2478V28.107C86.8325 26.9325 88.1187 26.2278 89.6388 26.2278C92.3282 26.1103 94.0822 28.3419 94.0822 31.6306ZM91.8605 31.6306C91.8605 29.5164 90.8081 28.107 89.0542 28.107C87.4171 28.107 86.2478 29.5164 86.2478 31.6306C86.2478 33.7447 87.4171 35.1542 89.0542 35.1542C90.8081 35.1542 91.8605 33.7447 91.8605 31.6306Z" fill="white"/>
<path d="M101.8 32.8052C101.917 34.2146 103.32 35.1542 105.308 35.1542C107.179 35.1542 108.465 34.2146 108.465 32.9226C108.465 31.7481 107.646 31.1608 105.775 30.691L103.905 30.2212C101.215 29.5165 100.046 28.342 100.046 26.3453C100.046 23.8787 102.268 22.1169 105.308 22.1169C108.348 22.1169 110.453 23.8787 110.57 26.3453H108.348C108.231 24.9358 107.062 23.9962 105.308 23.9962C103.554 23.9962 102.384 24.9358 102.384 26.2278C102.384 27.2849 103.203 27.8721 105.074 28.342L106.711 28.6943C109.634 29.399 110.92 30.5736 110.92 32.6877C110.92 35.3891 108.699 37.1509 105.308 37.1509C102.034 37.1509 99.9289 35.5066 99.812 32.8052H101.8Z" fill="white"/>
<path d="M115.364 23.7612V26.2277H117.352V27.9895H115.364V33.8622C115.364 34.8018 115.715 35.1542 116.65 35.1542C116.884 35.1542 117.235 35.1542 117.352 35.1542V36.916C117.118 37.0334 116.65 37.0334 116.183 37.0334C114.078 37.0334 113.259 36.2113 113.259 34.2145V28.107H111.739V26.3452H113.259V23.8787H115.364V23.7612Z" fill="white"/>
<path d="M118.638 31.6306C118.638 28.3419 120.626 26.2278 123.666 26.2278C126.706 26.2278 128.694 28.3419 128.694 31.6306C128.694 35.0368 126.706 37.0335 123.666 37.0335C120.509 37.0335 118.638 34.9193 118.638 31.6306ZM126.472 31.6306C126.472 29.2816 125.42 27.9896 123.666 27.9896C121.912 27.9896 120.859 29.2816 120.859 31.6306C120.859 33.9797 121.912 35.2717 123.666 35.2717C125.42 35.2717 126.472 33.8622 126.472 31.6306Z" fill="white"/>
<path d="M130.448 26.2278H132.553V28.107C132.904 26.9325 133.839 26.2278 135.125 26.2278C135.476 26.2278 135.71 26.2278 135.827 26.3452V28.3419C135.71 28.2245 135.242 28.2245 134.892 28.2245C133.488 28.2245 132.67 29.1641 132.67 30.691V37.0335H130.448V26.2278Z" fill="white"/>
<path d="M145.883 33.7447C145.532 35.624 143.662 37.0334 141.323 37.0334C138.283 37.0334 136.295 34.9193 136.295 31.6306C136.295 28.3419 138.166 26.1103 141.206 26.1103C144.129 26.1103 146 28.107 146 31.3957V32.1004H138.517V32.2178C138.517 33.9796 139.686 35.2716 141.323 35.2716C142.492 35.2716 143.428 34.6844 143.779 33.7447H145.883ZM138.517 30.5735H143.779C143.779 28.9292 142.726 27.8721 141.206 27.8721C139.686 27.8721 138.634 29.0466 138.517 30.5735Z" fill="white"/>
<path d="M60.5112 10.3749C62.7512 10.3749 63.9957 11.7499 63.9957 14.1249C63.9957 16.4999 62.7512 17.8749 60.5112 17.8749H57.7734V10.3749H60.5112ZM59.0179 16.8749H60.3868C61.8801 16.8749 62.8757 15.8749 62.8757 14.2499C62.8757 12.6249 62.0046 11.6249 60.3868 11.6249H59.0179V16.8749Z" fill="white"/>
<path d="M65.3647 15.0001C65.3647 13.1251 66.3603 12.1251 67.9781 12.1251C69.5959 12.1251 70.5914 13.2501 70.5914 15.0001C70.5914 16.8751 69.5959 17.8751 67.9781 17.8751C66.3603 18.0001 65.3647 16.8751 65.3647 15.0001ZM69.4714 15.0001C69.4714 13.7501 68.9736 13.1251 67.9781 13.1251C66.9825 13.1251 66.4847 13.8751 66.4847 15.0001C66.4847 16.2501 66.9825 17.0001 67.9781 17.0001C68.9736 17.0001 69.4714 16.2501 69.4714 15.0001Z" fill="white"/>
<path d="M77.6847 17.8749H76.5647L75.4447 13.7499H75.3202L74.2002 17.8749H73.0802L71.5869 12.2499H72.7069L73.7025 16.4999H73.8269L74.9469 12.2499H76.0669L77.1869 16.4999H77.3114L78.3069 12.2499H79.4269L77.6847 17.8749Z" fill="white"/>
<path d="M80.5469 12.2501H81.6669V13.1251H81.7913C82.0402 12.5001 82.6624 12.1251 83.4091 12.1251C84.6535 12.1251 85.4002 12.8751 85.4002 14.2501V17.8751H84.2802V14.5001C84.2802 13.6251 83.9069 13.1251 83.0358 13.1251C82.1647 13.1251 81.6669 13.6251 81.6669 14.5001V17.7501H80.5469V12.2501Z" fill="white"/>
<path d="M87.0181 10H88.1381V17.875H87.0181V10Z" fill="white"/>
<path d="M89.6313 15.0001C89.6313 13.1251 90.6269 12.1251 92.2447 12.1251C93.8625 12.1251 94.858 13.2501 94.858 15.0001C94.858 16.8751 93.8625 17.8751 92.2447 17.8751C90.6269 18.0001 89.6313 16.8751 89.6313 15.0001ZM93.8625 15.0001C93.8625 13.7501 93.3647 13.1251 92.3691 13.1251C91.3736 13.1251 90.8758 13.8751 90.8758 15.0001C90.8758 16.2501 91.3736 17.0001 92.3691 17.0001C93.2402 17.0001 93.8625 16.2501 93.8625 15.0001Z" fill="white"/>
<path d="M96.1021 16.2501C96.1021 15.2501 96.8487 14.6251 98.2176 14.6251L99.7109 14.5001V14.0001C99.7109 13.3751 99.3376 13.1251 98.5909 13.1251C97.9687 13.1251 97.5954 13.3751 97.4709 13.7501H96.3509C96.4754 12.7501 97.3465 12.1251 98.5909 12.1251C99.9598 12.1251 100.831 12.8751 100.831 14.0001V17.8751H99.7109V17.1251H99.5865C99.2132 17.7501 98.5909 18.0001 97.8443 18.0001C96.8487 18.0001 96.1021 17.2501 96.1021 16.2501ZM99.7109 15.7501V15.2501L98.342 15.3751C97.5954 15.3751 97.2221 15.7501 97.2221 16.1251C97.2221 16.6251 97.7198 16.8751 98.2176 16.8751C99.0887 17.0001 99.7109 16.5001 99.7109 15.7501Z" fill="white"/>
<path d="M102.2 15C102.2 13.25 103.071 12.125 104.565 12.125C105.311 12.125 105.934 12.5 106.307 13.125H106.431V10H107.551V17.875H106.431V17H106.307C105.934 17.625 105.311 18 104.565 18C103.196 18 102.2 16.875 102.2 15ZM103.445 15C103.445 16.25 104.067 16.875 104.938 16.875C105.809 16.875 106.431 16.125 106.431 15C106.431 13.875 105.809 13.125 104.938 13.125C103.942 13.125 103.445 13.875 103.445 15Z" fill="white"/>
<path d="M112.031 15.0001C112.031 13.1251 113.027 12.1251 114.645 12.1251C116.262 12.1251 117.258 13.2501 117.258 15.0001C117.258 16.8751 116.262 17.8751 114.645 17.8751C113.027 18.0001 112.031 16.8751 112.031 15.0001ZM116.262 15.0001C116.262 13.7501 115.765 13.1251 114.769 13.1251C113.773 13.1251 113.276 13.8751 113.276 15.0001C113.276 16.2501 113.773 17.0001 114.769 17.0001C115.64 17.0001 116.262 16.2501 116.262 15.0001Z" fill="white"/>
<path d="M118.875 12.2501H119.995V13.1251H120.12C120.369 12.5001 120.991 12.1251 121.738 12.1251C122.982 12.1251 123.729 12.8751 123.729 14.2501V17.8751H122.609V14.5001C122.609 13.6251 122.235 13.1251 121.364 13.1251C120.493 13.1251 119.995 13.6251 119.995 14.5001V17.7501H118.875V12.2501Z" fill="white"/>
<path d="M129.827 10.8751V12.2501H131.071V13.2501H129.827V16.1251C129.827 16.7501 130.076 17.0001 130.574 17.0001C130.698 17.0001 130.823 17.0001 130.947 17.0001V17.8751C130.823 17.8751 130.574 17.8751 130.325 17.8751C129.08 17.8751 128.583 17.5001 128.583 16.3751V13.2501H127.711V12.3751H128.583V10.8751H129.827Z" fill="white"/>
<path d="M132.564 10H133.684V13.125H133.809C134.058 12.5 134.68 12.125 135.551 12.125C136.796 12.125 137.542 12.875 137.542 14.25V17.875H136.422V14.5C136.422 13.625 136.049 13.125 135.178 13.125C134.307 13.125 133.809 13.75 133.809 14.5V17.75H132.689V10H132.564Z" fill="white"/>
<path d="M143.889 16.3751C143.64 17.3751 142.769 18.0001 141.4 18.0001C139.782 18.0001 138.787 16.8751 138.787 15.1251C138.787 13.3751 139.782 12.1251 141.4 12.1251C143.018 12.1251 143.889 13.2501 143.889 15.0001V15.3751H139.907C139.907 16.3751 140.529 17.0001 141.4 17.0001C142.022 17.0001 142.52 16.7501 142.769 16.3751H143.889ZM139.907 14.5001H142.769C142.769 13.6251 142.147 13.0001 141.4 13.0001C140.529 13.1251 140.031 13.6251 139.907 14.5001Z" fill="white"/>
</svg>
