<svg width="180" height="50" viewBox="0 0 180 50" fill="none" xmlns="http://www.w3.org/2000/svg">
<rect width="180" height="50" rx="25" fill="black"/>
<path d="M67.9648 14.2497C67.9648 15.1326 67.745 15.9052 67.1956 16.457C66.5363 17.1192 65.7672 17.4504 64.7783 17.4504C63.7894 17.4504 63.0202 17.1192 62.361 16.457C61.7017 15.7948 61.3721 15.0222 61.3721 14.0289C61.3721 13.0356 61.7017 12.263 62.361 11.6008C63.0202 10.9386 63.7894 10.6075 64.7783 10.6075C65.2178 10.6075 65.6573 10.7179 66.0968 10.9386C66.5363 11.1593 66.866 11.3801 67.0857 11.7112L66.5363 12.263C66.0968 11.7112 65.5474 11.4904 64.7783 11.4904C64.119 11.4904 63.4598 11.7112 63.0202 12.263C62.4709 12.7045 62.2511 13.3667 62.2511 14.1393C62.2511 14.9119 62.4709 15.5741 63.0202 16.0156C63.5696 16.457 64.119 16.7881 64.7783 16.7881C65.5474 16.7881 66.0968 16.5674 66.6462 16.0156C66.9759 15.6845 67.1956 15.243 67.1956 14.6911H64.7783V13.8082H67.9648C67.9648 13.9185 67.9648 14.1393 67.9648 14.2497Z" fill="white" stroke="white" stroke-width="0.2" stroke-miterlimit="10"/>
<path d="M73.0196 11.4905H70.0529V13.5875H72.7998V14.3601H70.0529V16.4571H73.0196V17.34H69.1738V10.7179H73.0196V11.4905Z" fill="white" stroke="white" stroke-width="0.2" stroke-miterlimit="10"/>
<path d="M76.6449 17.34H75.7659V11.4905H73.8979V10.7179H78.5128V11.4905H76.6449V17.34Z" fill="white" stroke="white" stroke-width="0.2" stroke-miterlimit="10"/>
<path d="M81.6997 17.34V10.7179H82.5787V17.34H81.6997Z" fill="white" stroke="white" stroke-width="0.2" stroke-miterlimit="10"/>
<path d="M86.3143 17.34H85.4353V11.4905H83.5674V10.7179H88.0724V11.4905H86.2045V17.34H86.3143Z" fill="white" stroke="white" stroke-width="0.2" stroke-miterlimit="10"/>
<path d="M96.7527 16.457C96.0935 17.1192 95.3243 17.4504 94.3354 17.4504C93.3465 17.4504 92.5774 17.1192 91.9181 16.457C91.2588 15.7948 90.9292 15.0222 90.9292 14.0289C90.9292 13.0356 91.2588 12.263 91.9181 11.6008C92.5774 10.9386 93.3465 10.6075 94.3354 10.6075C95.3243 10.6075 96.0935 10.9386 96.7527 11.6008C97.412 12.263 97.7417 13.0356 97.7417 14.0289C97.7417 15.0222 97.412 15.7948 96.7527 16.457ZM92.5774 15.9052C93.0169 16.3467 93.6762 16.6778 94.3354 16.6778C94.9947 16.6778 95.654 16.457 96.0935 15.9052C96.533 15.4637 96.8626 14.8015 96.8626 14.0289C96.8626 13.2563 96.6429 12.5941 96.0935 12.1526C95.654 11.7112 94.9947 11.3801 94.3354 11.3801C93.6762 11.3801 93.0169 11.6008 92.5774 12.1526C92.1379 12.5941 91.8082 13.2563 91.8082 14.0289C91.8082 14.8015 92.028 15.4637 92.5774 15.9052Z" fill="white" stroke="white" stroke-width="0.2" stroke-miterlimit="10"/>
<path d="M98.9502 17.34V10.7179H99.9391L103.126 15.9052V14.5808V10.7179H104.005V17.34H103.126L99.7193 11.932V13.2564V17.34H98.9502Z" fill="white" stroke="white" stroke-width="0.2" stroke-miterlimit="10"/>
<path d="M90.6809 27.284C88.0426 27.284 85.9539 29.3077 85.9539 32.1183C85.9539 34.8166 88.0426 36.9527 90.6809 36.9527C93.3192 36.9527 95.4078 34.929 95.4078 32.1183C95.4078 29.1953 93.3192 27.284 90.6809 27.284ZM90.6809 34.929C89.2518 34.929 88.0426 33.6923 88.0426 32.0059C88.0426 30.3195 89.2518 29.0828 90.6809 29.0828C92.1099 29.0828 93.3192 30.2071 93.3192 32.0059C93.3192 33.6923 92.1099 34.929 90.6809 34.929ZM80.4574 27.284C77.8192 27.284 75.7305 29.3077 75.7305 32.1183C75.7305 34.8166 77.8192 36.9527 80.4574 36.9527C83.0957 36.9527 85.1844 34.929 85.1844 32.1183C85.1844 29.1953 83.0957 27.284 80.4574 27.284ZM80.4574 34.929C79.0284 34.929 77.8192 33.6923 77.8192 32.0059C77.8192 30.3195 79.0284 29.0828 80.4574 29.0828C81.8865 29.0828 83.0957 30.2071 83.0957 32.0059C83.0957 33.6923 81.8865 34.929 80.4574 34.929ZM68.2553 28.7456V30.7692H72.9823C72.8723 31.8935 72.4326 32.7929 71.883 33.355C71.2234 34.0296 70.1241 34.8166 68.2553 34.8166C65.2872 34.8166 63.0887 32.4556 63.0887 29.4201C63.0887 26.3846 65.3972 24.0237 68.2553 24.0237C69.7943 24.0237 71.0035 24.6982 71.883 25.4852L73.3121 24.0237C72.1028 22.8994 70.5638 22 68.3652 22C64.4078 22 61 25.3728 61 29.4201C61 33.4675 64.4078 36.8402 68.3652 36.8402C70.5638 36.8402 72.1028 36.1657 73.422 34.7041C74.7411 33.355 75.1809 31.4438 75.1809 29.9822C75.1809 29.5325 75.1809 29.0828 75.0709 28.7456H68.2553ZM118.163 30.3195C117.723 29.1953 116.624 27.284 114.206 27.284C111.787 27.284 109.809 29.1953 109.809 32.1183C109.809 34.8166 111.787 36.9527 114.426 36.9527C116.514 36.9527 117.833 35.6036 118.273 34.8166L116.734 33.6923C116.184 34.4793 115.525 35.0414 114.426 35.0414C113.326 35.0414 112.667 34.5917 112.117 33.5799L118.383 30.8817L118.163 30.3195ZM111.787 31.8935C111.787 30.0947 113.216 29.0828 114.206 29.0828C114.975 29.0828 115.745 29.5325 115.965 30.0947L111.787 31.8935ZM106.621 36.503H108.709V22.4497H106.621V36.503ZM103.323 28.2959C102.773 27.7337 101.894 27.1716 100.794 27.1716C98.4858 27.1716 96.2872 29.3077 96.2872 32.0059C96.2872 34.7041 98.3759 36.7278 100.794 36.7278C101.894 36.7278 102.773 36.1657 103.213 35.6036H103.323V36.2781C103.323 38.0769 102.333 39.0888 100.794 39.0888C99.5851 39.0888 98.7057 38.1893 98.4858 37.4024L96.727 38.1894C97.2766 39.426 98.5957 41 100.904 41C103.323 41 105.301 39.5385 105.301 36.0533V27.5089H103.323V28.2959ZM100.904 34.929C99.4752 34.929 98.266 33.6923 98.266 32.0059C98.266 30.3195 99.4752 29.0828 100.904 29.0828C102.333 29.0828 103.433 30.3195 103.433 32.0059C103.433 33.6923 102.333 34.929 100.904 34.929ZM127.727 22.4497H122.78V36.503H124.869V31.2189H127.727C130.035 31.2189 132.234 29.5325 132.234 26.8343C132.234 24.1361 130.035 22.4497 127.727 22.4497ZM127.837 29.1953H124.869V24.3609H127.837C129.376 24.3609 130.255 25.7101 130.255 26.7219C130.145 27.9586 129.266 29.1953 127.837 29.1953ZM140.479 27.1716C138.94 27.1716 137.401 27.8462 136.851 29.3077L138.72 30.0947C139.16 29.3077 139.819 29.0828 140.589 29.0828C141.688 29.0828 142.677 29.7574 142.787 30.8817V30.9941C142.457 30.7692 141.578 30.432 140.699 30.432C138.72 30.432 136.741 31.5562 136.741 33.5799C136.741 35.4911 138.39 36.7278 140.149 36.7278C141.578 36.7278 142.238 36.0533 142.787 35.3787H142.897V36.503H144.876V31.1065C144.656 28.6331 142.787 27.1716 140.479 27.1716ZM140.259 34.929C139.599 34.929 138.61 34.5917 138.61 33.6923C138.61 32.568 139.819 32.2308 140.809 32.2308C141.688 32.2308 142.128 32.4556 142.677 32.6805C142.457 34.0296 141.358 34.929 140.259 34.929ZM151.801 27.5089L149.493 33.5799H149.383L146.965 27.5089H144.766L148.394 36.0533L146.305 40.7751H148.394L154 27.5089H151.801ZM133.333 36.503H135.422V22.4497H133.333V36.503Z" fill="white"/>
<path d="M27.3101 11.2698C26.9805 11.6009 26.8706 12.1527 26.8706 12.8149V37.2065C26.8706 37.8687 27.0904 38.4205 27.42 38.7516L27.5299 38.862L41.1548 25.1763V25.0659V24.9555L27.3101 11.2698Z" fill="url(#paint0_linear)"/>
<path d="M45.5504 29.8117L41.0454 25.2865V25.0658V24.9554L45.5504 20.4303L45.6603 20.5407L51.0443 23.631C52.5826 24.5139 52.5826 25.9487 51.0443 26.8317L45.5504 29.8117Z" fill="url(#paint1_linear)"/>
<path d="M45.6602 29.7014L41.0453 25.0659L27.3105 38.862C27.8599 39.4138 28.6291 39.4138 29.618 38.9723L45.6602 29.7014Z" fill="url(#paint2_linear)"/>
<path d="M45.6602 20.4303L29.618 11.2697C28.6291 10.7178 27.8599 10.8282 27.3105 11.38L41.0453 25.0658L45.6602 20.4303Z" fill="url(#paint3_linear)"/>
<path opacity="0.2" d="M45.5504 29.5909L29.618 38.6411C28.739 39.193 27.9698 39.0826 27.4204 38.6411L27.3105 38.7515L27.4204 38.8619C27.9698 39.3033 28.739 39.4137 29.618 38.8619L45.5504 29.5909Z" fill="black"/>
<path opacity="0.12" d="M27.3101 38.6411C26.9805 38.3099 26.8706 37.7581 26.8706 37.0959V37.2063C26.8706 37.8685 27.0904 38.4203 27.42 38.7514V38.6411H27.3101Z" fill="black"/>
<path opacity="0.12" d="M51.0437 26.5007L45.5498 29.591L45.6597 29.7013L51.0437 26.611C51.8129 26.1695 52.1425 25.6177 52.1425 25.0659C52.1425 25.6177 51.703 26.0592 51.0437 26.5007Z" fill="black"/>
<path opacity="0.25" d="M29.6176 11.3801L51.0438 23.631C51.7031 24.0725 52.1426 24.514 52.1426 25.0658C52.1426 24.514 51.813 23.9621 51.0438 23.5206L29.6176 11.2697C28.0793 10.3868 26.8706 11.049 26.8706 12.8149V12.9252C26.8706 11.2697 28.0793 10.4971 29.6176 11.3801Z" fill="white"/>
<defs>
<linearGradient id="paint0_linear" x1="39.8358" y1="12.605" x2="21.3134" y2="31.0451" gradientUnits="userSpaceOnUse">
<stop stop-color="#00A0FF"/>
<stop offset="0.00657445" stop-color="#00A1FF"/>
<stop offset="0.2601" stop-color="#00BEFF"/>
<stop offset="0.5122" stop-color="#00D2FF"/>
<stop offset="0.7604" stop-color="#00DFFF"/>
<stop offset="1" stop-color="#00E3FF"/>
</linearGradient>
<linearGradient id="paint1_linear" x1="53.0598" y1="25.0676" x2="26.4727" y2="25.0676" gradientUnits="userSpaceOnUse">
<stop stop-color="#FFE000"/>
<stop offset="0.4087" stop-color="#FFBD00"/>
<stop offset="0.7754" stop-color="#FFA500"/>
<stop offset="1" stop-color="#FF9C00"/>
</linearGradient>
<linearGradient id="paint2_linear" x1="43.1626" y1="27.6001" x2="18.0448" y2="52.6063" gradientUnits="userSpaceOnUse">
<stop stop-color="#FF3A44"/>
<stop offset="1" stop-color="#C31162"/>
</linearGradient>
<linearGradient id="paint3_linear" x1="23.9012" y1="3.18659" x2="35.1175" y2="14.3529" gradientUnits="userSpaceOnUse">
<stop stop-color="#32A071"/>
<stop offset="0.0685" stop-color="#2DA771"/>
<stop offset="0.4762" stop-color="#15CF74"/>
<stop offset="0.8009" stop-color="#06E775"/>
<stop offset="1" stop-color="#00F076"/>
</linearGradient>
</defs>
</svg>
